<svg width="192" height="192" viewBox="0 0 192 192" fill="none" xmlns="http://www.w3.org/2000/svg">
  <!-- Background Circle -->
  <circle cx="96" cy="96" r="96" fill="#2c3e50"/>
  
  <!-- Shopping Cart -->
  <g transform="translate(48, 48)">
    <!-- Cart Body -->
    <path d="M12 8h72l-8 32H20L12 8z" fill="#ffffff" stroke="#3498db" stroke-width="2"/>
    
    <!-- Cart Handle -->
    <path d="M8 8h8" stroke="#ffffff" stroke-width="3" stroke-linecap="round"/>
    
    <!-- Cart Lines -->
    <path d="M24 16h48M24 24h44M24 32h40" stroke="#3498db" stroke-width="2" stroke-linecap="round"/>
    
    <!-- Wheels -->
    <circle cx="28" cy="52" r="4" fill="#ffffff"/>
    <circle cx="68" cy="52" r="4" fill="#ffffff"/>
    
    <!-- Shopping Items -->
    <rect x="32" y="12" width="6" height="6" fill="#e74c3c" rx="1"/>
    <rect x="44" y="12" width="6" height="6" fill="#2ecc71" rx="1"/>
    <rect x="56" y="12" width="6" height="6" fill="#f39c12" rx="1"/>
    
    <rect x="32" y="20" width="6" height="6" fill="#9b59b6" rx="1"/>
    <rect x="44" y="20" width="6" height="6" fill="#1abc9c" rx="1"/>
    
    <rect x="32" y="28" width="6" height="6" fill="#e67e22" rx="1"/>
  </g>
</svg>