<svg width="512" height="512" viewBox="0 0 512 512" fill="none" xmlns="http://www.w3.org/2000/svg">
  <!-- Background Circle -->
  <circle cx="256" cy="256" r="256" fill="#2c3e50"/>
  
  <!-- Shopping Cart -->
  <g transform="translate(128, 128)">
    <!-- Cart Body -->
    <path d="M32 32h192l-24 96H56L32 32z" fill="#ffffff" stroke="#3498db" stroke-width="6"/>
    
    <!-- Cart Handle -->
    <path d="M16 32h24" stroke="#ffffff" stroke-width="8" stroke-linecap="round"/>
    
    <!-- Cart Lines -->
    <path d="M64 48h128M64 64h120M64 80h112M64 96h104" stroke="#3498db" stroke-width="4" stroke-linecap="round"/>
    
    <!-- Wheels -->
    <circle cx="80" cy="148" r="12" fill="#ffffff"/>
    <circle cx="176" cy="148" r="12" fill="#ffffff"/>
    
    <!-- Shopping Items -->
    <rect x="80" y="36" width="16" height="16" fill="#e74c3c" rx="3"/>
    <rect x="104" y="36" width="16" height="16" fill="#2ecc71" rx="3"/>
    <rect x="128" y="36" width="16" height="16" fill="#f39c12" rx="3"/>
    <rect x="152" y="36" width="16" height="16" fill="#e67e22" rx="3"/>
    
    <rect x="80" y="56" width="16" height="16" fill="#9b59b6" rx="3"/>
    <rect x="104" y="56" width="16" height="16" fill="#1abc9c" rx="3"/>
    <rect x="128" y="56" width="16" height="16" fill="#3498db" rx="3"/>
    
    <rect x="80" y="76" width="16" height="16" fill="#e74c3c" rx="3"/>
    <rect x="104" y="76" width="16" height="16" fill="#2ecc71" rx="3"/>
    
    <rect x="80" y="96" width="16" height="16" fill="#f39c12" rx="3"/>
    
    <!-- Extra Details -->
    <circle cx="88" cy="44" r="2" fill="#ffffff" opacity="0.8"/>
    <circle cx="112" cy="44" r="2" fill="#ffffff" opacity="0.8"/>
    <circle cx="136" cy="44" r="2" fill="#ffffff" opacity="0.8"/>
  </g>
</svg>